<?xml version="1.0" encoding="utf-8"?>
<!-- Generator: Adobe Illustrator 16.0.4, SVG Export Plug-In . SVG Version: 6.00 Build 0)  -->
<!DOCTYPE svg PUBLIC "-//W3C//DTD SVG 1.1//EN" "http://www.w3.org/Graphics/SVG/1.1/DTD/svg11.dtd">
<svg version="1.1" id="Layer_1" xmlns="http://www.w3.org/2000/svg" xmlns:xlink="http://www.w3.org/1999/xlink" x="0px" y="0px"
	 width="110px" height="50px" viewBox="0 0 110 50" enable-background="new 0 0 110 50" xml:space="preserve">
<g>
	<path fill="#FFFFFF" d="M23.463,15.939c0.33,0.23,0.569,0.531,0.717,0.901c0.148,0.371,0.223,0.803,0.223,1.297
		c0,0.906-0.148,1.906-0.444,3.001c-0.297,1.095-0.701,2.203-1.21,3.323c-0.511,1.12-1.112,2.206-1.804,3.261
		s-1.442,1.99-2.249,2.805c-0.807,0.814-1.647,1.469-2.52,1.963c-0.874,0.494-1.738,0.742-2.594,0.742
		c-1.153,0-2.075-0.318-2.767-0.951c-0.692-0.635-1.145-1.512-1.359-2.631c-0.972,1.301-1.943,2.248-2.916,2.84
		c-0.971,0.594-2.001,0.891-3.088,0.891c-0.988,0-1.796-0.334-2.421-1.002c-0.626-0.666-0.939-1.609-0.939-2.828
		c0-0.707,0.057-1.494,0.173-2.359c0.115-0.863,0.337-1.803,0.667-2.816c0.329-1.013,0.778-2.104,1.346-3.273
		c0.568-1.169,1.313-2.412,2.235-3.73c0.065-0.083,0.194-0.144,0.383-0.186c0.188-0.041,0.408-0.062,0.655-0.062
		s0.51,0.021,0.791,0.062c0.28,0.042,0.535,0.099,0.766,0.173c0.23,0.074,0.419,0.165,0.568,0.271
		c0.148,0.107,0.222,0.235,0.222,0.383c0,0.132-0.058,0.256-0.173,0.371c-0.741,0.856-1.371,1.824-1.89,2.903
		c-0.519,1.079-0.943,2.174-1.272,3.286c-0.33,1.112-0.568,2.187-0.716,3.224C3.7,28.834,3.625,29.74,3.625,30.514
		c0,0.809,0.189,1.213,0.568,1.213c0.28,0,0.605-0.174,0.976-0.52c0.371-0.348,0.771-0.812,1.199-1.396s0.873-1.26,1.334-2.025
		c0.461-0.766,0.922-1.572,1.383-2.422c0.461-0.848,0.91-1.704,1.347-2.569c0.436-0.865,0.844-1.684,1.223-2.458
		c0.099-0.197,0.288-0.346,0.568-0.444c0.28-0.099,0.584-0.148,0.915-0.148c0.23,0,0.46,0.025,0.691,0.074s0.437,0.116,0.618,0.198
		c0.181,0.083,0.33,0.185,0.445,0.309c0.115,0.124,0.172,0.268,0.172,0.433c0,0.116-0.024,0.223-0.073,0.321
		c-0.165,0.362-0.351,0.865-0.556,1.507c-0.207,0.642-0.404,1.343-0.593,2.1c-0.19,0.757-0.346,1.522-0.469,2.298
		c-0.124,0.773-0.186,1.475-0.186,2.1c0,0.709,0.074,1.215,0.222,1.518c0.148,0.307,0.346,0.459,0.593,0.459
		c0.346,0,0.778-0.242,1.297-0.729s1.071-1.117,1.655-1.891s1.165-1.635,1.742-2.582c0.576-0.947,1.1-1.89,1.569-2.828
		c0.469-0.939,0.848-1.812,1.136-2.619c0.288-0.807,0.433-1.449,0.433-1.926c0-0.296-0.045-0.556-0.136-0.778
		c-0.091-0.223-0.234-0.399-0.433-0.531c-0.115-0.066-0.173-0.165-0.173-0.297c0-0.115,0.041-0.243,0.124-0.383
		c0.082-0.14,0.193-0.268,0.333-0.383c0.14-0.115,0.305-0.214,0.494-0.296c0.189-0.082,0.392-0.124,0.606-0.124
		C22.928,15.691,23.2,15.774,23.463,15.939z"/>
</g>
<g>
	<path fill="#FFFFFF" d="M26.873,25.5c0,0.115-0.008,0.197-0.025,0.246c0.312-0.328,0.606-0.629,0.878-0.901
		s0.547-0.502,0.827-0.692c0.279-0.189,0.589-0.338,0.927-0.445c0.337-0.106,0.721-0.161,1.148-0.161
		c0.247,0,0.494,0.013,0.741,0.037c0.247,0.025,0.47,0.07,0.667,0.136c0.198,0.066,0.362,0.165,0.494,0.297s0.198,0.305,0.198,0.519
		c0,0.182-0.018,0.367-0.051,0.556c-0.032,0.189-0.103,0.359-0.209,0.506c-0.107,0.148-0.271,0.272-0.494,0.371
		c-0.223,0.1-0.523,0.148-0.902,0.148c-0.182,0-0.325-0.012-0.432-0.037c-0.107-0.024-0.206-0.053-0.297-0.086
		c-0.09-0.033-0.182-0.062-0.271-0.087c-0.091-0.024-0.21-0.037-0.357-0.037c-0.166,0-0.375,0.099-0.631,0.296
		s-0.568,0.549-0.939,1.051c-0.369,0.502-0.799,1.189-1.283,2.062c-0.486,0.873-1.034,1.977-1.645,3.311
		c-0.064,0.279-0.25,0.482-0.555,0.605c-0.306,0.123-0.63,0.186-0.977,0.186c-0.379,0-0.733-0.062-1.062-0.186
		c-0.33-0.123-0.494-0.293-0.494-0.506c0-0.016,0.009-0.1,0.025-0.248c0.017-0.148,0.082-0.473,0.197-0.975
		c0.115-0.504,0.284-1.232,0.507-2.188c0.222-0.955,0.548-2.264,0.976-3.928c0.083-0.312,0.268-0.543,0.556-0.692
		c0.288-0.148,0.597-0.222,0.927-0.222c0.379,0,0.732,0.094,1.062,0.284C26.708,24.911,26.873,25.17,26.873,25.5z"/>
	<path fill="#FFFFFF" d="M33.543,25.475c0.148-0.428,0.453-0.732,0.914-0.914s0.922-0.272,1.383-0.272
		c0.379,0,0.701,0.045,0.965,0.136c0.263,0.091,0.395,0.219,0.395,0.383c-0.017,0.198-0.132,0.54-0.346,1.025
		s-0.445,1.022-0.691,1.606c-0.248,0.584-0.47,1.174-0.668,1.766c-0.197,0.594-0.296,1.088-0.296,1.482
		c0,0.297,0.119,0.52,0.358,0.668c0.238,0.146,0.547,0.223,0.926,0.223c0.511,0,1.075-0.145,1.692-0.434
		c0.618-0.287,1.157-0.729,1.618-1.322c0.164-0.213,0.338-0.32,0.52-0.32c0.114,0,0.213,0.041,0.296,0.123
		c0.083,0.084,0.124,0.197,0.124,0.346s-0.05,0.305-0.148,0.471c-0.23,0.443-0.539,0.836-0.926,1.172
		c-0.388,0.338-0.812,0.627-1.273,0.865c-0.461,0.24-0.947,0.42-1.457,0.543c-0.512,0.125-1.006,0.188-1.482,0.188
		c-0.445,0-0.869-0.055-1.272-0.162s-0.753-0.275-1.05-0.506s-0.535-0.523-0.717-0.877c-0.182-0.355-0.271-0.779-0.271-1.273
		c0-0.395,0.045-0.811,0.136-1.248c0.091-0.436,0.206-0.871,0.347-1.309c0.139-0.436,0.291-0.855,0.457-1.26
		C33.238,26.171,33.395,25.805,33.543,25.475z M34.68,21.325c0-0.346,0.094-0.655,0.284-0.927c0.188-0.271,0.433-0.502,0.729-0.691
		s0.626-0.338,0.988-0.444c0.362-0.107,0.708-0.161,1.037-0.161c0.444,0,0.823,0.099,1.138,0.296
		c0.312,0.198,0.469,0.511,0.469,0.938c0,0.346-0.096,0.655-0.284,0.927c-0.189,0.272-0.433,0.502-0.729,0.692
		c-0.296,0.189-0.625,0.338-0.987,0.444c-0.363,0.107-0.708,0.161-1.038,0.161c-0.445,0-0.824-0.099-1.137-0.296
		C34.836,22.066,34.68,21.753,34.68,21.325z"/>
	<path fill="#FFFFFF" d="M48.242,23.919c-0.626,0.065-1.186,0.103-1.68,0.111c-0.494,0.008-0.955,0.029-1.384,0.062
		c-0.396,0.956-0.737,1.747-1.025,2.372s-0.519,1.162-0.691,1.605c-0.173,0.445-0.301,0.836-0.384,1.174
		c-0.082,0.338-0.123,0.697-0.123,1.074c0,0.379,0.137,0.652,0.408,0.816s0.597,0.246,0.976,0.246c0.511,0,1.034-0.119,1.569-0.357
		c0.534-0.238,0.918-0.547,1.148-0.926c0.131-0.215,0.305-0.322,0.518-0.322c0.115,0,0.215,0.041,0.297,0.123
		c0.083,0.084,0.124,0.199,0.124,0.348c0,0.146-0.05,0.305-0.148,0.469c-0.296,0.543-0.654,0.988-1.075,1.334
		c-0.419,0.346-0.863,0.617-1.334,0.816c-0.469,0.195-0.942,0.332-1.42,0.406c-0.479,0.074-0.931,0.111-1.359,0.111
		c-1.119,0-1.905-0.252-2.359-0.754c-0.452-0.502-0.679-1.164-0.679-1.988c0-0.873,0.193-1.891,0.581-3.051
		c0.387-1.162,0.844-2.359,1.371-3.595c-0.231-0.033-0.47-0.062-0.717-0.086c-0.247-0.024-0.561-0.037-0.938-0.037
		c-0.265,0-0.503-0.078-0.718-0.235c-0.213-0.156-0.32-0.325-0.32-0.506c0-0.182,0.103-0.342,0.309-0.482
		c0.206-0.141,0.449-0.21,0.729-0.21c0.478,0,0.909-0.013,1.297-0.037c0.387-0.024,0.753-0.053,1.099-0.086
		c0.215-0.494,0.429-0.98,0.643-1.458c0.215-0.477,0.42-0.955,0.618-1.433c0.099-0.23,0.263-0.395,0.494-0.494
		c0.229-0.099,0.485-0.148,0.766-0.148c0.23,0,0.47,0.029,0.716,0.086c0.248,0.058,0.471,0.136,0.668,0.235s0.357,0.21,0.481,0.333
		c0.124,0.123,0.185,0.243,0.185,0.358c0,0.049-0.008,0.083-0.023,0.099l-0.865,2.199l2.223,0.099
		c0.182,0.017,0.342,0.132,0.482,0.346c0.141,0.214,0.21,0.437,0.21,0.667c0,0.182-0.054,0.338-0.16,0.47
		C48.642,23.803,48.473,23.886,48.242,23.919z"/>
</g>
<g>
	<path fill="#FFFFFF" d="M60.472,29.205c-0.379,0.594-0.894,1.154-1.544,1.68c-0.651,0.527-1.384,0.988-2.199,1.385
		c-0.815,0.395-1.672,0.707-2.569,0.939c-0.897,0.229-1.774,0.344-2.63,0.344c-0.512,0-1.038-0.061-1.582-0.186
		c-0.543-0.123-1.037-0.309-1.482-0.555c-0.444-0.246-0.812-0.553-1.1-0.914s-0.432-0.781-0.432-1.26
		c0-1.186,0.197-2.285,0.593-3.299c0.396-1.012,0.877-1.893,1.445-2.643c0.568-0.75,1.169-1.338,1.804-1.767
		c0.634-0.428,1.182-0.642,1.643-0.642c0.561,0,1.174,0.066,1.84,0.198c0.668,0.132,1.285,0.338,1.854,0.618s1.041,0.639,1.42,1.074
		c0.38,0.438,0.569,0.951,0.569,1.544c0,0.462-0.148,0.919-0.445,1.372s-0.758,0.863-1.384,1.234
		c-0.625,0.371-1.425,0.68-2.396,0.928c-0.972,0.246-2.124,0.395-3.459,0.443c-0.016,0.1-0.027,0.201-0.036,0.311
		c-0.009,0.105-0.013,0.199-0.013,0.283c0,0.576,0.152,0.984,0.457,1.223c0.305,0.24,0.695,0.357,1.174,0.357
		c0.593,0,1.28-0.139,2.062-0.42c0.783-0.279,1.549-0.6,2.298-0.963c0.75-0.361,1.429-0.725,2.038-1.088
		c0.609-0.361,1.046-0.625,1.31-0.789c0.099-0.066,0.182-0.129,0.247-0.186c0.065-0.059,0.14-0.088,0.223-0.088
		c0.131,0,0.239,0.041,0.32,0.125c0.083,0.082,0.124,0.189,0.124,0.32C60.62,28.918,60.571,29.057,60.472,29.205z M52.295,27.771
		c0.411,0,0.803-0.094,1.173-0.283s0.691-0.42,0.964-0.691c0.271-0.271,0.485-0.564,0.643-0.877
		c0.156-0.312,0.234-0.602,0.234-0.865c0-0.23-0.07-0.419-0.21-0.568c-0.141-0.148-0.368-0.223-0.68-0.223
		c-0.214,0-0.457,0.095-0.729,0.284c-0.272,0.19-0.556,0.437-0.853,0.741c-0.297,0.306-0.585,0.66-0.865,1.062
		c-0.279,0.404-0.535,0.82-0.766,1.248C51.553,27.715,51.916,27.771,52.295,27.771z"/>
</g>
<g>
	<path fill="#FFFFFF" d="M83.398,15.939c0.328,0.23,0.568,0.531,0.717,0.901c0.147,0.371,0.222,0.803,0.222,1.297
		c0,0.906-0.148,1.906-0.445,3.001c-0.296,1.095-0.7,2.203-1.211,3.323c-0.51,1.12-1.11,2.206-1.802,3.261
		c-0.692,1.055-1.441,1.99-2.25,2.805c-0.807,0.814-1.646,1.469-2.519,1.963c-0.874,0.494-1.737,0.742-2.595,0.742
		c-1.152,0-2.075-0.318-2.767-0.951c-0.691-0.635-1.145-1.512-1.358-2.631c-0.973,1.301-1.944,2.248-2.915,2.84
		c-0.973,0.594-2.002,0.891-3.088,0.891c-0.989,0-1.796-0.334-2.422-1.002c-0.626-0.666-0.938-1.609-0.938-2.828
		c0-0.707,0.058-1.494,0.173-2.359c0.115-0.863,0.337-1.803,0.666-2.816c0.33-1.013,0.778-2.104,1.347-3.273
		c0.568-1.169,1.314-2.412,2.237-3.73c0.065-0.083,0.192-0.144,0.382-0.186c0.189-0.041,0.407-0.062,0.655-0.062
		c0.246,0,0.51,0.021,0.79,0.062c0.279,0.042,0.534,0.099,0.767,0.173c0.229,0.074,0.42,0.165,0.567,0.271
		c0.148,0.107,0.223,0.235,0.223,0.383c0,0.132-0.059,0.256-0.174,0.371c-0.74,0.856-1.37,1.824-1.889,2.903
		c-0.52,1.079-0.943,2.174-1.273,3.286c-0.329,1.112-0.567,2.187-0.716,3.224s-0.223,1.943-0.223,2.717
		c0,0.809,0.189,1.213,0.568,1.213c0.28,0,0.605-0.174,0.977-0.52c0.37-0.348,0.769-0.812,1.198-1.396
		c0.428-0.584,0.872-1.26,1.333-2.025s0.922-1.572,1.385-2.422c0.46-0.848,0.909-1.704,1.346-2.569s0.844-1.684,1.223-2.458
		c0.1-0.197,0.288-0.346,0.568-0.444s0.585-0.148,0.914-0.148c0.23,0,0.461,0.025,0.692,0.074c0.23,0.049,0.436,0.116,0.617,0.198
		c0.181,0.083,0.329,0.185,0.445,0.309c0.114,0.124,0.172,0.268,0.172,0.433c0,0.116-0.024,0.223-0.074,0.321
		c-0.165,0.362-0.351,0.865-0.556,1.507s-0.403,1.343-0.593,2.1c-0.189,0.757-0.346,1.522-0.47,2.298
		c-0.123,0.773-0.185,1.475-0.185,2.1c0,0.709,0.074,1.215,0.222,1.518c0.148,0.307,0.347,0.459,0.593,0.459
		c0.347,0,0.778-0.242,1.297-0.729s1.071-1.117,1.656-1.891c0.584-0.773,1.165-1.635,1.74-2.582c0.577-0.947,1.101-1.89,1.569-2.828
		c0.47-0.939,0.849-1.812,1.138-2.619c0.287-0.807,0.431-1.449,0.431-1.926c0-0.296-0.045-0.556-0.135-0.778
		c-0.091-0.223-0.235-0.399-0.433-0.531c-0.115-0.066-0.173-0.165-0.173-0.297c0-0.115,0.041-0.243,0.123-0.383
		c0.083-0.14,0.193-0.268,0.334-0.383c0.14-0.115,0.304-0.214,0.493-0.296c0.189-0.082,0.393-0.124,0.606-0.124
		C82.863,15.691,83.135,15.774,83.398,15.939z"/>
</g>
<g>
	<path fill="#FFFFFF" d="M95.898,29.205c-0.379,0.594-0.894,1.154-1.545,1.68c-0.65,0.527-1.383,0.988-2.197,1.385
		c-0.816,0.395-1.672,0.707-2.569,0.939c-0.897,0.229-1.775,0.344-2.632,0.344c-0.511,0-1.037-0.061-1.581-0.186
		c-0.544-0.123-1.037-0.309-1.482-0.555c-0.444-0.246-0.811-0.553-1.099-0.914c-0.289-0.361-0.433-0.781-0.433-1.26
		c0-1.186,0.198-2.285,0.593-3.299c0.395-1.012,0.877-1.893,1.446-2.643c0.567-0.75,1.168-1.338,1.802-1.767
		c0.635-0.428,1.183-0.642,1.644-0.642c0.561,0,1.174,0.066,1.84,0.198c0.668,0.132,1.285,0.338,1.854,0.618
		s1.042,0.639,1.421,1.074c0.378,0.438,0.568,0.951,0.568,1.544c0,0.462-0.148,0.919-0.445,1.372s-0.757,0.863-1.384,1.234
		c-0.625,0.371-1.425,0.68-2.396,0.928c-0.973,0.246-2.125,0.395-3.46,0.443c-0.016,0.1-0.027,0.201-0.036,0.311
		c-0.009,0.105-0.013,0.199-0.013,0.283c0,0.576,0.152,0.984,0.457,1.223c0.305,0.24,0.696,0.357,1.173,0.357
		c0.594,0,1.281-0.139,2.064-0.42c0.782-0.279,1.547-0.6,2.296-0.963c0.751-0.361,1.43-0.725,2.039-1.088
		c0.609-0.361,1.046-0.625,1.309-0.789c0.1-0.066,0.182-0.129,0.247-0.186c0.066-0.059,0.141-0.088,0.224-0.088
		c0.131,0,0.237,0.041,0.32,0.125c0.082,0.082,0.124,0.189,0.124,0.32C96.047,28.918,95.997,29.057,95.898,29.205z M87.722,27.771
		c0.411,0,0.803-0.094,1.173-0.283s0.692-0.42,0.964-0.691s0.485-0.564,0.642-0.877s0.235-0.602,0.235-0.865
		c0-0.23-0.07-0.419-0.21-0.568c-0.141-0.148-0.367-0.223-0.679-0.223c-0.215,0-0.458,0.095-0.729,0.284
		c-0.272,0.19-0.557,0.437-0.854,0.741c-0.297,0.306-0.585,0.66-0.865,1.062c-0.279,0.404-0.535,0.82-0.765,1.248
		C86.979,27.715,87.342,27.771,87.722,27.771z"/>
	<path fill="#FFFFFF" d="M99.406,15.643c0.1-0.23,0.272-0.396,0.519-0.495c0.247-0.099,0.527-0.148,0.841-0.148
		c0.263,0,0.539,0.029,0.828,0.087c0.286,0.058,0.546,0.135,0.777,0.234c0.23,0.099,0.42,0.21,0.567,0.333
		c0.148,0.124,0.224,0.243,0.224,0.358c0,0.05-0.01,0.083-0.025,0.099c-1.071,2.355-1.968,4.476-2.693,6.361
		c-0.725,1.886-1.317,3.492-1.777,4.818c-0.462,1.326-0.792,2.346-0.988,3.064c-0.198,0.715-0.297,1.082-0.297,1.098
		c0,0.232,0.103,0.408,0.309,0.531c0.205,0.125,0.473,0.186,0.803,0.186c0.51,0,1.078-0.156,1.705-0.469
		c0.625-0.312,1.128-0.783,1.507-1.408c0.131-0.215,0.305-0.322,0.519-0.322c0.115,0,0.214,0.041,0.297,0.125
		c0.082,0.082,0.123,0.197,0.123,0.346c0,0.146-0.05,0.305-0.148,0.469c-0.593,1.104-1.227,1.883-1.901,2.334
		c-0.676,0.453-1.441,0.68-2.298,0.68c-0.593,0-1.154-0.07-1.68-0.211c-0.527-0.141-0.988-0.328-1.384-0.566
		s-0.709-0.508-0.939-0.803c-0.23-0.297-0.345-0.602-0.345-0.916c0-0.395,0.032-0.809,0.099-1.246
		c0.064-0.438,0.176-0.939,0.332-1.508c0.157-0.568,0.372-1.23,0.643-1.988c0.273-0.758,0.61-1.659,1.014-2.705
		s0.881-2.249,1.433-3.607C98.02,19.015,98.666,17.438,99.406,15.643z"/>
	<path fill="#FFFFFF" d="M106.151,15.643c0.099-0.23,0.271-0.396,0.518-0.495c0.248-0.099,0.527-0.148,0.841-0.148
		c0.263,0,0.539,0.029,0.828,0.087c0.287,0.058,0.546,0.135,0.778,0.234c0.229,0.099,0.419,0.21,0.567,0.333
		s0.223,0.243,0.223,0.358c0,0.05-0.009,0.083-0.025,0.099c-1.07,2.355-1.967,4.476-2.692,6.361
		c-0.725,1.886-1.318,3.492-1.778,4.818c-0.462,1.326-0.792,2.346-0.988,3.064c-0.198,0.715-0.297,1.082-0.297,1.098
		c0,0.232,0.104,0.408,0.309,0.531c0.205,0.125,0.474,0.186,0.804,0.186c0.51,0,1.077-0.156,1.704-0.469
		c0.626-0.312,1.128-0.783,1.507-1.408c0.132-0.215,0.305-0.322,0.52-0.322c0.114,0,0.214,0.041,0.296,0.125
		c0.082,0.082,0.124,0.197,0.124,0.346c0,0.146-0.051,0.305-0.149,0.469c-0.593,1.104-1.227,1.883-1.901,2.334
		c-0.676,0.453-1.441,0.68-2.298,0.68c-0.592,0-1.153-0.07-1.679-0.211c-0.528-0.141-0.989-0.328-1.385-0.566
		s-0.708-0.508-0.938-0.803c-0.23-0.297-0.346-0.602-0.346-0.916c0-0.395,0.032-0.809,0.1-1.246
		c0.064-0.438,0.176-0.939,0.332-1.508c0.157-0.568,0.371-1.23,0.643-1.988c0.272-0.758,0.609-1.659,1.013-2.705
		c0.404-1.046,0.881-2.249,1.433-3.607C104.764,19.015,105.41,17.438,106.151,15.643z"/>
</g>
</svg>
