<?xml version="1.0" encoding="utf-8"?>
<!-- Generator: Adobe Illustrator 16.0.4, SVG Export Plug-In . SVG Version: 6.00 Build 0)  -->
<!DOCTYPE svg PUBLIC "-//W3C//DTD SVG 1.1//EN" "http://www.w3.org/Graphics/SVG/1.1/DTD/svg11.dtd">
<svg version="1.1" id="Layer_1" xmlns="http://www.w3.org/2000/svg" xmlns:xlink="http://www.w3.org/1999/xlink" x="0px" y="0px"
	 width="42px" height="42px" viewBox="0 0 42 42" enable-background="new 0 0 42 42" xml:space="preserve">
<g>
	<path fill="#FFFFFF" d="M28.271,29.923l-6.78-9.791c-0.23-0.334-0.786-0.334-1.017,0l-6.854,9.897
		c-0.131,0.189-0.146,0.436-0.039,0.64C13.688,30.873,13.899,31,14.129,31h13.709c0.006-0.001,0.012-0.001,0.02,0
		c0.342,0,0.619-0.276,0.619-0.618C28.477,30.199,28.396,30.036,28.271,29.923z"/>
	<path fill="#FFFFFF" d="M27.818,17.907c-1.526,0-2.774-1.153-2.953-2.632c0.011-0.12,0.035-0.235,0.035-0.358
		c0-2.164-1.754-3.917-3.918-3.917c-2.162,0-3.916,1.754-3.916,3.917c0,0.181,0.029,0.353,0.053,0.527
		c-0.25,1.397-1.469,2.463-2.938,2.463c-0.512,0-0.928,0.416-0.928,0.928s0.416,0.928,0.928,0.928c1.66,0,3.125-0.84,3.998-2.115
		c0.712,0.73,1.703,1.188,2.803,1.188c1.111,0,2.108-0.466,2.821-1.208c0.872,1.288,2.346,2.136,4.015,2.136
		c0.512,0,0.928-0.416,0.928-0.928S28.33,17.907,27.818,17.907z"/>
</g>
</svg>
