<?xml version="1.0" encoding="utf-8"?>
<!-- Generator: Adobe Illustrator 16.0.4, SVG Export Plug-In . SVG Version: 6.00 Build 0)  -->
<!DOCTYPE svg PUBLIC "-//W3C//DTD SVG 1.1//EN" "http://www.w3.org/Graphics/SVG/1.1/DTD/svg11.dtd">
<svg version="1.1" id="Layer_1" xmlns="http://www.w3.org/2000/svg" xmlns:xlink="http://www.w3.org/1999/xlink" x="0px" y="0px"
	 width="42px" height="42px" viewBox="0 0 42 42" enable-background="new 0 0 42 42" xml:space="preserve">
<g>
	<path fill="#FFFFFF" d="M24.878,14.878c0,2.142-1.736,3.878-3.878,3.878s-3.877-1.736-3.877-3.878S18.858,11,21,11
		S24.878,12.736,24.878,14.878"/>
	<path fill="#FFFFFF" d="M28.326,20.308c-0.105-0.202-0.314-0.328-0.542-0.328H14.216c-0.228,0-0.437,0.126-0.542,0.328
		c-0.106,0.202-0.091,0.445,0.039,0.633l6.784,9.797c0.114,0.165,0.302,0.264,0.503,0.264s0.389-0.099,0.503-0.264l6.784-9.797
		C28.417,20.753,28.433,20.509,28.326,20.308z"/>
</g>
</svg>
