<?xml version="1.0" encoding="utf-8"?>
<!-- Generator: Adobe Illustrator 16.0.4, SVG Export Plug-In . SVG Version: 6.00 Build 0)  -->
<!DOCTYPE svg PUBLIC "-//W3C//DTD SVG 1.1//EN" "http://www.w3.org/Graphics/SVG/1.1/DTD/svg11.dtd">
<svg version="1.1" id="Layer_1" xmlns="http://www.w3.org/2000/svg" xmlns:xlink="http://www.w3.org/1999/xlink" x="0px" y="0px"
	 width="50px" height="38px" viewBox="0 0 50 38" enable-background="new 0 0 50 38" xml:space="preserve">
<line fill="none" stroke="#FFFFFF" stroke-width="1.4526" stroke-linecap="round" stroke-miterlimit="10" x1="21.465" y1="19" x2="28.535" y2="19"/>
<g>
	<path fill="none" stroke="#FFFFFF" stroke-width="2.4694" stroke-miterlimit="10" d="M23.407,20.949
		c0,0.957-0.684,1.733-1.525,1.733H14.76c-0.843,0-1.525-0.776-1.525-1.733v-3.898c0-0.957,0.683-1.733,1.525-1.733h7.122
		c0.842,0,1.525,0.776,1.525,1.733"/>
	<path fill="none" stroke="#FFFFFF" stroke-width="2.4694" stroke-miterlimit="10" d="M26.593,17.051
		c0-0.957,0.683-1.733,1.525-1.733h7.122c0.842,0,1.525,0.776,1.525,1.733v3.898c0,0.957-0.684,1.733-1.525,1.733h-7.122
		c-0.843,0-1.525-0.776-1.525-1.733"/>
</g>
</svg>
